<?xml version="1.0" encoding="UTF-8"?>
<svg version="1.1" xmlns="http://www.w3.org/2000/svg" width="700" height="613">
<path d="M0 0 C1.07612871 -0.00523668 2.15225743 -0.01047336 3.2609961 -0.01586872 C6.86741471 -0.03087203 10.47369148 -0.03157396 14.08013916 -0.03224182 C16.66575358 -0.03986307 19.25136572 -0.04829051 21.8369751 -0.0574646 C28.86186 -0.08028386 35.88671464 -0.08823183 42.91163158 -0.09329104 C47.30083604 -0.09655151 51.69003175 -0.10307609 56.07923126 -0.11029243 C68.24013358 -0.12985401 80.4010278 -0.14626092 92.56194687 -0.14916897 C93.33966989 -0.14935654 94.11739292 -0.14954411 94.91868331 -0.14973736 C96.49520127 -0.1501036 98.07171923 -0.1504673 99.6482372 -0.15082847 C100.43078438 -0.15101128 101.21333156 -0.1511941 102.01959229 -0.15138245 C102.80309847 -0.151563 103.58660466 -0.15174354 104.39385346 -0.15192956 C117.0870505 -0.15547059 129.78007783 -0.18249038 142.47321603 -0.21988034 C155.51606647 -0.25799191 168.55883277 -0.27732665 181.60174012 -0.27762848 C188.92046852 -0.27821239 196.23899443 -0.2866617 203.55767059 -0.31562614 C210.44257349 -0.34274934 217.32706962 -0.34402065 224.21200562 -0.3279705 C226.73630904 -0.32615473 229.26063542 -0.33285814 231.78488922 -0.34878922 C235.23662367 -0.36924247 238.68695476 -0.3587003 242.13867188 -0.34057617 C243.13266109 -0.35377614 244.12665031 -0.36697611 245.15076041 -0.38057607 C252.70471284 -0.29026186 259.13845171 1.71686098 264.97883201 6.68142134 C270.10283381 12.27519539 270.62226035 19.11549242 270.56381226 26.36703491 C270.56637553 27.54594412 270.56637553 27.54594412 270.56899059 28.74866968 C270.57226923 31.36655282 270.56130877 33.98417624 270.550354 36.60203552 C270.54978954 38.48481744 270.55010714 40.3675998 270.55123901 42.25038147 C270.55181214 47.35108268 270.54006417 52.45168956 270.5260911 57.55236888 C270.5135772 62.88683642 270.51241272 68.22130618 270.51004028 73.55578613 C270.50382746 83.65266611 270.48741929 93.74950271 270.4673413 103.8463636 C270.44497618 115.34327815 270.43398732 126.84019477 270.42395043 138.33712566 C270.40305291 161.98282603 270.36788075 185.62848791 270.32330322 209.27415466 C271.50883789 209.24797058 272.69437256 209.2217865 273.91583252 209.19480896 C278.32319188 209.10416445 282.73046922 209.04685378 287.13848877 208.99949646 C289.04455429 208.97438467 290.95052382 208.94028821 292.85626221 208.8969574 C295.5994232 208.83615722 298.34130908 208.80791221 301.08502197 208.78587341 C301.93416672 208.76006699 302.78331146 208.73426056 303.65818787 208.70767212 C308.0021589 208.70562263 309.7887486 208.87315826 313.37001324 211.55964565 C316.17804956 215.46200524 315.91454395 218.70332759 315.32330322 223.27415466 C314.52960685 228.06747489 313.51602598 232.8044824 312.46856689 237.54734802 C312.16050136 238.97474846 311.85325303 240.40232547 311.54675293 241.83006287 C310.71346885 245.7003089 309.86873911 249.56797566 309.0218904 253.43527293 C308.12487269 257.54106656 307.23842141 261.64914136 306.35072327 265.75695801 C304.65721018 273.5858731 302.95410831 281.41267029 301.24763805 289.23877007 C299.34955915 297.94598395 297.4626218 306.65559891 295.57648826 315.36540675 C292.32566488 330.37604373 289.06079949 345.38356019 285.78363013 360.3884666 C283.75845427 369.66224591 281.74639744 378.93858826 279.76045132 388.22085094 C278.76067549 392.89029936 277.75347559 397.5581273 276.74495888 402.22569466 C276.29857778 404.30115463 275.85576084 406.37738525 275.41698265 408.45446587 C271.48094596 427.07856926 267.33669118 444.29798296 251.32330322 456.27415466 C246.00501921 459.51952727 241.12107062 461.40028323 234.8486824 461.39720249 C233.95245234 461.39919354 233.05622227 461.40118459 232.13283372 461.40323597 C231.15229327 461.40032313 230.17175282 461.39741029 229.16149902 461.39440918 C228.11677547 461.3952636 227.07205192 461.39611803 225.99567008 461.39699835 C222.48409563 461.39864954 218.97256861 461.39313761 215.46099854 461.38768005 C212.94812521 461.38739808 210.43525181 461.38755612 207.92237854 461.38812256 C202.50672041 461.38835051 197.09107764 461.38550835 191.67542267 461.37988472 C183.84528805 461.37175918 176.01515927 461.36915342 168.18502089 461.36789673 C155.48127446 461.36570787 142.77753445 461.35905228 130.0737915 461.34959412 C117.73297152 461.34041571 105.39215328 461.33333697 93.05133057 461.3290863 C92.29069759 461.32882358 91.53006461 461.32856086 90.74638215 461.32829017 C86.93052653 461.32698514 83.11467089 461.32572143 79.29881525 461.32447827 C47.64030653 461.31411083 15.98180588 461.2964227 -15.67669678 461.27415466 C-15.53377197 461.88831238 -15.39084717 462.50247009 -15.24359131 463.13523865 C-15.05909424 463.94291687 -14.87459717 464.75059509 -14.68450928 465.58274841 C-14.50033447 466.38253113 -14.31615967 467.18231384 -14.12640381 468.0063324 C-13.63737193 470.47246549 -13.51484468 472.76544718 -13.67669678 475.27415466 C-12.87747803 475.29993591 -12.07825928 475.32571716 -11.25482178 475.35227966 C0.87846585 475.97888137 10.64527856 478.84248002 20.32330322 486.27415466 C20.93818604 486.71372498 21.55306885 487.15329529 22.18658447 487.60618591 C29.74048782 493.4181692 35.56190761 503.18384613 38.32330322 512.27415466 C38.32330322 513.92415466 38.32330322 515.57415466 38.32330322 517.27415466 C84.52330322 517.27415466 130.72330322 517.27415466 178.32330322 517.27415466 C178.65330322 514.96415466 178.98330322 512.65415466 179.32330322 510.27415466 C185.22354166 495.71048071 194.02420201 485.20737469 208.58892822 478.84837341 C223.56392356 473.67485116 238.18636111 474.18905536 252.63580322 480.96165466 C264.64546231 487.48482939 273.10741397 497.43103195 277.76080322 510.33665466 C282.03230063 524.97365244 280.56108205 539.77771298 273.32330322 553.27415466 C265.47191744 565.62882904 253.78237798 574.55024335 239.43634033 577.89476013 C224.64036051 580.55136933 210.21057176 577.68306688 197.81939697 569.17649841 C188.44776221 562.03411011 181.52643677 552.74945834 178.32330322 541.27415466 C178.32330322 539.95415466 178.32330322 538.63415466 178.32330322 537.27415466 C132.12330322 537.27415466 85.92330322 537.27415466 38.32330322 537.27415466 C37.99330322 539.58415466 37.66330322 541.89415466 37.32330322 544.27415466 C32.35278263 557.71231213 22.56249776 568.37844649 9.64361572 574.55540466 C-2.99254418 579.80484795 -17.79607926 580.23579004 -30.71575928 575.59837341 C-45.29712151 569.07715732 -53.93960619 559.19591028 -60.77825928 544.98509216 C-64.59523765 534.88971945 -64.52188426 519.58126356 -60.71575928 509.49681091 C-54.49530005 496.19064062 -47.60156181 487.64858449 -34.67669678 480.27415466 C-34.01669678 480.27415466 -33.35669678 480.27415466 -32.67669678 480.27415466 C-32.78727197 479.7019626 -32.89784716 479.12977055 -33.01177311 478.54023933 C-36.75675751 459.16036224 -40.49896212 439.77994895 -44.23919678 420.39915466 C-44.46130868 419.24824317 -44.46130868 419.24824317 -44.6879077 418.07408094 C-56.76253353 355.5055046 -68.759653 292.92221219 -80.72180653 230.33204269 C-82.23832284 222.39746326 -83.75602527 214.46311436 -85.27644348 206.52928162 C-85.8730573 203.4151325 -86.4695109 200.30095273 -87.06585693 197.18675232 C-87.21286745 196.41913527 -87.35987797 195.65151822 -87.51134336 194.86064005 C-89.55505333 184.1853799 -91.57854387 173.50644554 -93.58835697 162.82475376 C-94.70692543 156.88093888 -95.83163461 150.93829065 -96.95789379 144.9959287 C-97.8682185 140.19006817 -98.77066705 135.38282055 -99.66697836 130.57432795 C-100.22081417 127.61398852 -100.782402 124.65515783 -101.34609056 121.69668031 C-101.72499613 119.69555058 -102.09463753 117.69267348 -102.4638958 115.68974113 C-105.36869268 99.04106627 -105.36869268 99.04106627 -115.36597919 86.11704254 C-120.70272106 83.29246148 -125.0581511 82.71044595 -131.04266357 82.79173279 C-131.94288239 82.78782028 -132.8431012 82.78390778 -133.77059937 82.77987671 C-135.71136975 82.77393025 -137.65218503 82.77701984 -139.59293175 82.78829956 C-142.66590646 82.8056302 -145.73794629 82.79801768 -148.81092834 82.78404236 C-155.32874908 82.75876432 -161.84634699 82.7642043 -168.36419678 82.77415466 C-175.92993307 82.78568441 -183.49521341 82.78456168 -191.06089211 82.75009155 C-194.08621917 82.74299774 -197.11082318 82.75967053 -200.13609314 82.77720642 C-201.99037059 82.77149961 -203.84464506 82.76468285 -205.69891357 82.75657654 C-206.95752449 82.77354836 -206.95752449 82.77354836 -208.24156189 82.79086304 C-212.2535634 82.74891768 -214.20565952 82.5734256 -217.67530823 80.3690033 C-220.74976127 77.15098062 -221.07274366 74.77681197 -221.03216553 70.31321716 C-220.43029241 66.86071425 -218.35846146 65.33225314 -215.67669678 63.27415466 C-211.85280435 61.99952386 -208.24984204 62.11850839 -204.26483154 62.11302185 C-203.40584763 62.10805695 -202.54686371 62.10309204 -201.66184998 62.09797668 C-198.81392619 62.08334949 -195.96605825 62.07654935 -193.11810303 62.07102966 C-191.13331603 62.06527522 -189.14852904 62.05951752 -187.16374207 62.05375671 C-182.99496197 62.04324278 -178.82620116 62.03740382 -174.65740967 62.03392029 C-169.34164826 62.02845858 -164.02614599 62.0044822 -158.71046543 61.97594833 C-154.6052326 61.95722131 -150.50006066 61.95211085 -146.39478874 61.95058441 C-144.43697645 61.94757605 -142.47916476 61.93960965 -140.52139473 61.92639923 C-124.94981919 61.82889552 -110.68191592 62.26945743 -98.48919678 73.24290466 C-91.2060805 80.85707168 -87.07360888 89.5827241 -84.77532959 99.80467224 C-84.52350355 100.90122619 -84.52350355 100.90122619 -84.26659012 102.01993275 C-82.0729883 111.73005231 -80.21825008 121.50939913 -78.34857178 131.28587341 C-77.95087433 133.35473466 -77.5530239 135.4235665 -77.1550293 137.49237061 C-76.329085 141.79050658 -75.50587939 146.089156 -74.68450928 150.38816833 C-73.63270915 155.89131858 -72.57252534 161.39281727 -71.5101738 166.89393902 C-70.6896293 171.14912911 -69.87418764 175.40528509 -69.06021881 179.66173744 C-68.6712302 181.69181935 -68.28049697 183.72156779 -67.88796234 185.75096703 C-67.34186228 188.57761812 -66.80282878 191.40552967 -66.26556396 194.23387146 C-66.10353485 195.06456146 -65.94150574 195.89525146 -65.77456665 196.75111389 C-65.55605545 197.91303001 -65.55605545 197.91303001 -65.33312988 199.09841919 C-65.14181551 200.09678566 -65.14181551 200.09678566 -64.9466362 201.11532116 C-64.60902041 203.81539465 -64.67669678 206.55305539 -64.67669678 209.27415466 C-52.46669678 209.27415466 -40.25669678 209.27415466 -27.67669678 209.27415466 C-27.70026245 200.5060321 -27.70026245 200.5060321 -27.7243042 191.56077576 C-27.77395385 172.27441725 -27.80727998 152.98805627 -27.83213329 133.70165062 C-27.84760622 122.00524515 -27.86870393 110.3089002 -27.90301514 98.61253357 C-27.93290439 88.41871495 -27.95226869 78.22494016 -27.95896226 68.03107893 C-27.9628753 62.63284545 -27.97208047 57.23473736 -27.99388695 51.83654404 C-28.01424453 46.75587623 -28.02053201 41.6753855 -28.01601982 36.59468079 C-28.01684534 34.72984988 -28.02281529 32.86501308 -28.0343132 31.00021744 C-28.04924594 28.45348481 -28.04564761 25.90742018 -28.03746033 23.360672 C-28.04619885 22.62330508 -28.05493738 21.88593816 -28.0639407 21.12622678 C-28.014734 15.46075553 -26.62817474 11.45448398 -22.84466553 7.22727966 C-22.19111084 6.66524841 -21.53755615 6.10321716 -20.86419678 5.52415466 C-19.89546631 4.66563904 -19.89546631 4.66563904 -18.90716553 3.78977966 C-12.99352866 -0.22859355 -6.87660432 -0.01655936 0 0 Z M-7.67669678 20.27415466 C-7.67669678 82.64415466 -7.67669678 145.01415466 -7.67669678 209.27415466 C77.46330322 209.27415466 162.60330322 209.27415466 250.32330322 209.27415466 C250.32330322 146.90415466 250.32330322 84.53415466 250.32330322 20.27415466 C247.53775773 19.3456395 245.88324834 19.14892255 243.0085516 19.14831352 C241.67949335 19.1444019 241.67949335 19.1444019 240.32358545 19.14041126 C239.3492783 19.14264198 238.37497114 19.1448727 237.37113953 19.14717102 C235.81970319 19.14483103 235.81970319 19.14483103 234.23692471 19.14244378 C230.75455417 19.13843984 227.27222686 19.1416211 223.78985596 19.14476013 C221.30007908 19.14340583 218.81030241 19.14162574 216.32052612 19.13945007 C210.25025047 19.13535456 204.17999193 19.13596645 198.10971694 19.13886271 C193.1779772 19.14111862 188.24624092 19.14142846 183.31450081 19.1403389 C182.61331833 19.14018566 181.91213585 19.14003243 181.18970542 19.13987456 C179.76540048 19.13955484 178.34109555 19.13923063 176.91679061 19.13890196 C163.55369523 19.13604878 150.19060671 19.13933177 136.82751245 19.14470233 C125.35255451 19.1491712 113.87760668 19.14839344 102.40264893 19.14378357 C89.08669988 19.13843664 75.77075684 19.13632243 62.45480686 19.13939583 C61.03596787 19.13971439 59.61712887 19.14002876 58.19828987 19.1403389 C57.50013636 19.14049317 56.80198285 19.14064745 56.08267317 19.1408064 C51.154326 19.14167112 46.22598262 19.14020965 41.29763603 19.13785934 C34.66981955 19.13476813 28.04201929 19.13695689 21.41420364 19.1427536 C18.9752423 19.14408098 16.53627936 19.14368745 14.09731865 19.14149094 C10.78101805 19.13877862 7.46477985 19.14216159 4.14848328 19.14717102 C3.1719454 19.1449403 2.19540752 19.14270958 1.18927759 19.14041126 C0.30584651 19.14301901 -0.57758457 19.14562675 -1.48778629 19.14831352 C-2.25395458 19.14847587 -3.02012287 19.14863823 -3.80950838 19.1488055 C-5.76956729 19.15963205 -5.76956729 19.15963205 -7.67669678 20.27415466 Z " fill="#030303" transform="translate(302.67669677734375,10.725845336914063)"/>
<path d="M0 0 C12.13421127 9.56847185 21.11570184 22.40962668 23.45703125 37.9375 C24.65883807 57.05329781 21.5641867 72.87040043 8.70703125 87.8125 C-2.8919053 99.8859385 -17.78009711 105.82781445 -34.35546875 106.25 C-51.29102422 105.93807753 -64.70499919 99.94017174 -76.54296875 87.9375 C-77.19136719 87.29941406 -77.83976562 86.66132813 -78.5078125 86.00390625 C-88.32051697 75.67587375 -92.48719456 62.14353411 -92.98046875 48.125 C-92.53411966 31.4055071 -86.516076 17.39710173 -74.99609375 5.19140625 C-54.47673043 -13.66157565 -22.87382045 -15.91222292 0 0 Z M-25.04296875 32.5 C-26.16072259 33.60100785 -27.27921106 34.7012704 -28.3984375 35.80078125 C-28.93259277 36.33783691 -29.46674805 36.87489258 -30.01708984 37.42822266 C-32.05176553 39.44076107 -34.18772233 41.32008079 -36.35546875 43.1875 C-36.98066406 43.72890625 -37.60585938 44.2703125 -38.25 44.828125 C-38.67667969 45.19421875 -39.10335937 45.5603125 -39.54296875 45.9375 C-42.39698587 44.62966346 -43.98893646 43.52126347 -46.35546875 41.3125 C-49.37382104 38.69180762 -49.37382104 38.69180762 -53.10546875 38.3125 C-57.52045676 39.11522509 -58.97437777 40.27920376 -61.54296875 43.9375 C-62.7137803 47.21673695 -62.7137803 47.21673695 -61.54296875 50.9375 C-58.88766954 54.63467671 -55.7963538 57.76519619 -52.54296875 60.9375 C-51.83914063 61.66195312 -51.1353125 62.38640625 -50.41015625 63.1328125 C-46.45572224 67.01594513 -46.45572224 67.01594513 -41.13671875 68.36328125 C-36.88929902 67.86005435 -35.35280266 66.79748925 -32.16796875 64 C-31.22566406 63.17886719 -30.28335938 62.35773438 -29.3125 61.51171875 C-26.0128526 58.44476863 -22.8156412 55.30020428 -19.67578125 52.0703125 C-17.60412238 49.99865363 -15.45942072 48.08745537 -13.23046875 46.1875 C-8.89948734 42.49020479 -8.89948734 42.49020479 -5.54296875 37.9375 C-5.54296875 34.05167724 -6.00729079 31.77315762 -8.10546875 28.5 C-15.01268986 24.07229416 -20.12710617 27.36445529 -25.04296875 32.5 Z " fill="#080808" transform="translate(403.54296875,87.0625)"/>
<path d="M0 0 C0.78244583 -0.0049649 1.56489166 -0.00992981 2.37104797 -0.01504517 C4.96042764 -0.02965447 7.54974605 -0.0364665 10.13916016 -0.04199219 C11.93893434 -0.04774437 13.73870851 -0.05350209 15.53848267 -0.05926514 C19.31293015 -0.06977142 23.08735636 -0.07561662 26.86181641 -0.07910156 C31.69624638 -0.0845875 36.53039488 -0.10861917 41.36473656 -0.13707352 C45.08280253 -0.15570416 48.80080074 -0.16090571 52.51890945 -0.16243744 C54.3010881 -0.1654632 56.08326558 -0.17348918 57.86539841 -0.18662262 C60.35970186 -0.20369322 62.85331794 -0.20180064 65.34765625 -0.1953125 C66.08237656 -0.20452728 66.81709686 -0.21374207 67.57408142 -0.22323608 C71.99616116 -0.18723579 74.80102073 0.42027039 78.30322266 3.16113281 C80.30110354 6.15795413 80.66257493 7.10198428 80.80322266 10.53613281 C80.85478516 11.28636719 80.90634766 12.03660156 80.95947266 12.80957031 C79.95022189 16.42605223 77.43039442 18.3139669 74.30322266 20.16113281 C71.36910868 20.64726222 69.02119571 20.84781037 66.09814453 20.80810547 C64.89696739 20.82124786 64.89696739 20.82124786 63.67152405 20.83465576 C61.03778081 20.85657196 58.40573145 20.84212574 55.77197266 20.82519531 C53.93403808 20.82856571 52.09610568 20.83342019 50.25817871 20.83969116 C46.41148601 20.84705192 42.56537494 20.83638287 38.71875 20.81298828 C33.79559786 20.78450076 28.87380865 20.80090904 23.95070648 20.8308506 C20.15702096 20.84894526 16.36365692 20.84315565 12.56996155 20.83021164 C10.75513039 20.82688361 8.94026974 20.83094346 7.12547302 20.84260941 C4.58563277 20.85535431 2.04797876 20.83589275 -0.49169922 20.80810547 C-1.60936928 20.8232872 -1.60936928 20.8232872 -2.74961853 20.83877563 C-8.47501366 20.7231186 -10.84726604 19.11635863 -14.69677734 15.16113281 C-15.6822279 12.06703 -15.37770331 9.31971375 -14.69677734 6.16113281 C-10.91491811 -0.09849627 -6.76955206 0.01024326 0 0 Z " fill="#121212" transform="translate(455.69677734375,172.8388671875)"/>
<path d="M0 0 C0.80078476 -0.0087616 1.60156952 -0.01752319 2.42662048 -0.02655029 C5.06036372 -0.04846649 7.69241308 -0.03402027 10.32617188 -0.01708984 C12.16410645 -0.02046024 14.00203885 -0.02531472 15.83996582 -0.03158569 C19.68665852 -0.03894645 23.53276959 -0.0282774 27.37939453 -0.00488281 C32.30254667 0.02360471 37.22433588 0.00719643 42.14743805 -0.02274513 C45.94112357 -0.04083979 49.73448761 -0.03505019 53.52818298 -0.02210617 C55.34301415 -0.01877814 57.15787479 -0.02283799 58.97267151 -0.03450394 C61.51251176 -0.04724884 64.05016577 -0.02778728 66.58984375 0 C67.70751381 -0.01518173 67.70751381 -0.01518173 68.84776306 -0.03067017 C74.57315819 0.08498687 76.94541057 1.69174684 80.79492188 5.64697266 C81.78037243 8.74107547 81.47584784 11.48839171 80.79492188 14.64697266 C78.6810031 18.14587269 77.67756128 19.35275952 73.79492188 20.64697266 C71.22057596 20.75324123 68.67290128 20.80420951 66.09814453 20.80810547 C65.3156987 20.81307037 64.53325287 20.81803528 63.72709656 20.82315063 C61.1377169 20.83775994 58.54839849 20.84457197 55.95898438 20.85009766 C54.15921019 20.85584984 52.35943602 20.86160756 50.55966187 20.86737061 C46.78521438 20.87787689 43.01078818 20.88372209 39.23632812 20.88720703 C34.40189815 20.89269297 29.56774965 20.91672464 24.73340797 20.94517899 C21.015342 20.96380963 17.29734379 20.96901118 13.57923508 20.97054291 C11.79705643 20.97356867 10.01487895 20.98159465 8.23274612 20.99472809 C5.73844267 21.01179869 3.24482659 21.00990611 0.75048828 21.00341797 C0.01576797 21.01263275 -0.71895233 21.02184753 -1.47593689 21.03134155 C-5.89801663 20.99534126 -8.7028762 20.38783507 -12.20507812 17.64697266 C-14.20295901 14.65015134 -14.5644304 13.70612119 -14.70507812 10.27197266 C-14.75664062 9.52173828 -14.80820312 8.77150391 -14.86132812 7.99853516 C-12.90075595 0.97315154 -6.3442225 -0.08617596 0 0 Z " fill="#131313" transform="translate(455.205078125,124.35302734375)"/>
<path d="M0 0 C0.82175217 -0.0087616 1.64350433 -0.01752319 2.49015808 -0.02655029 C5.19905834 -0.04850773 7.90631833 -0.03400528 10.61523438 -0.01708984 C12.50183423 -0.02045905 14.38843198 -0.02531253 16.27502441 -0.03158569 C20.22604062 -0.03895205 24.17649105 -0.02825922 28.12744141 -0.00488281 C33.18859134 0.02360491 38.2484156 0.00719966 43.30951691 -0.02274513 C47.20438604 -0.04082457 51.09894155 -0.03505713 54.99382019 -0.02210617 C56.85971738 -0.01877394 58.72564317 -0.02285282 60.59150696 -0.03450394 C63.20109317 -0.04722354 65.80854156 -0.02782195 68.41796875 0 C69.57144051 -0.01518173 69.57144051 -0.01518173 70.74821472 -0.03067017 C74.75741781 0.04840403 76.52261133 0.49684051 79.68566895 3.04483032 C81.77240755 5.72853983 82.39272004 6.81078679 82.33398438 10.14697266 C82.35332031 11.24525391 82.35332031 11.24525391 82.37304688 12.36572266 C81.34571734 15.89490177 79.5527467 17.35619003 76.70898438 19.64697266 C73.75127622 20.14186664 71.37034292 20.33280379 68.41796875 20.29394531 C67.59621658 20.30270691 66.77446442 20.31146851 65.92781067 20.32049561 C63.21891041 20.34245304 60.51165042 20.3279506 57.80273438 20.31103516 C55.91613452 20.31440436 54.02953677 20.31925785 52.14294434 20.32553101 C48.19192813 20.33289736 44.2414777 20.32220454 40.29052734 20.29882812 C35.22937741 20.2703404 30.16955315 20.28674565 25.10845184 20.31669044 C21.21358271 20.33476988 17.3190272 20.32900245 13.42414856 20.31605148 C11.55825137 20.31271925 9.69232558 20.31679813 7.82646179 20.32844925 C5.21687558 20.34116885 2.60942719 20.32176726 0 20.29394531 C-1.15347176 20.30912704 -1.15347176 20.30912704 -2.33024597 20.32461548 C-6.33944906 20.24554128 -8.10464258 19.7971048 -11.2677002 17.24911499 C-13.3544388 14.56540548 -13.97475129 13.48315852 -13.91601562 10.14697266 C-13.92890625 9.41478516 -13.94179688 8.68259766 -13.95507812 7.92822266 C-11.91161915 0.90834005 -6.47424653 -0.08521256 0 0 Z " fill="#090909" transform="translate(454.291015625,76.35302734375)"/>
<path d="M0 0 C0.66 0.33 1.32 0.66 2 1 C-2.95 5.95 -7.9 10.9 -13 16 C-13 11.93645091 -11.47015238 10.94829419 -8.75 8 C-7.96109375 7.13375 -7.1721875 6.2675 -6.359375 5.375 C-4.3351828 3.33740256 -2.34982916 1.63841299 0 0 Z " fill="#6E6E6E" transform="translate(335,87)"/>
<path d="M0 0 C0.66 0.33 1.32 0.66 2 1 C-0.97 3.97 -3.94 6.94 -7 10 C-7.66 9.67 -8.32 9.34 -9 9 C-6.21000549 5.51250686 -3.74764169 2.49842779 0 0 Z " fill="#666666" transform="translate(260,496)"/>
<path d="M0 0 C0.66 0.33 1.32 0.66 2 1 C-0.97 3.97 -3.94 6.94 -7 10 C-7.66 9.67 -8.32 9.34 -9 9 C-6.31941902 5.42589203 -3.57410797 2.68058098 0 0 Z " fill="#636363" transform="translate(500,496)"/>
<path d="M0 0 C-1.15173355 2.46800047 -2.04783565 4.04783565 -4 6 C-4.45811675 7.97235333 -4.45811675 7.97235333 -4.625 10.125 C-4.74875 11.40375 -4.8725 12.6825 -5 14 C-5.33 14 -5.66 14 -6 14 C-6.62572422 6.02201622 -6.62572422 6.02201622 -4.125 1.9375 C-2 0 -2 0 0 0 Z " fill="#6C6C6C" transform="translate(447,174)"/>
</svg>
